<svg version="1.1" xmlns="http://www.w3.org/2000/svg" viewBox="0 0 3204.397003173828 3143.166109983815" width="3204.397003173828" height="3143.166109983815">
  <!-- svg-source:excalidraw -->
  
  <defs>
    <style class="style-fonts">
      @font-face {
        font-family: "Virgil";
        src: url("https://excalidraw.com/Virgil.woff2");
      }
      @font-face {
        font-family: "Cascadia";
        src: url("https://excalidraw.com/Cascadia.woff2");
      }
    </style>
    
  </defs>
  <rect x="0" y="0" width="3204.397003173828" height="3143.166109983815" fill="#ffffff"></rect><g transform="translate(473.8375393309632 10) rotate(0 253.03895568847656 37.56227065293109)"><text x="0" y="0" font-family="Virgil, Segoe UI Emoji" font-size="60.09963304468975px" fill="#1971c2" text-anchor="start" style="white-space: pre;" direction="ltr" dominant-baseline="text-before-edge">Batch Processing</text></g><g transform="translate(749.8374172606507 90.12701685273322) rotate(0 67.07884979248047 14.927312946779296)"><text x="0" y="0" font-family="Virgil, Segoe UI Emoji" font-size="23.883700714846864px" fill="#2f9e44" text-anchor="start" style="white-space: pre;" direction="ltr" dominant-baseline="text-before-edge">Spring Boot</text></g><g stroke-linecap="round" transform="translate(10 278.88034338225265) rotate(0 172.00003051757812 114.28570556640625)"><path d="M32 0 C88.74 2.58, 146.52 2.29, 312 0 M32 0 C110.86 0.71, 189.85 0.95, 312 0 M312 0 C332.4 -0.34, 342.73 11.41, 344 32 M312 0 C333.25 1.23, 345.23 11.33, 344 32 M344 32 C343.61 84.57, 344.13 133.89, 344 196.57 M344 32 C346.31 77.07, 344.55 119.51, 344 196.57 M344 196.57 C345.25 216.68, 333.98 228.07, 312 228.57 M344 196.57 C343.21 218.11, 332.08 227.7, 312 228.57 M312 228.57 C208.56 230.55, 109.56 229.29, 32 228.57 M312 228.57 C209.3 229.36, 107.92 228.97, 32 228.57 M32 228.57 C9.67 227.28, 1.69 216.57, 0 196.57 M32 228.57 C11.2 227.94, 1.99 218.5, 0 196.57 M0 196.57 C-3 142.39, -2.4 88.01, 0 32 M0 196.57 C-1.32 143.9, -0.6 92.51, 0 32 M0 32 C0.27 11.55, 8.84 -0.95, 32 0 M0 32 C0.65 9.05, 10.74 -1.74, 32 0" stroke="#2f9e44" stroke-width="2" fill="none"></path></g><g transform="translate(108.99996948242188 226.4516934799089) rotate(0 50.16197967529297 17.5)"><text x="0" y="0" font-family="Virgil, Segoe UI Emoji" font-size="28px" fill="#2f9e44" text-anchor="start" style="white-space: pre;" direction="ltr" dominant-baseline="text-before-edge">csv file</text></g><g transform="translate(108.8570556640625 377.16598791350265) rotate(0 71.09197235107422 17.5)"><text x="0" y="0" font-family="Virgil, Segoe UI Emoji" font-size="28px" fill="#2f9e44" text-anchor="start" style="white-space: pre;" direction="ltr" dominant-baseline="text-before-edge">huge data</text></g><g stroke-linecap="round" transform="translate(852.8572998046875 175.45178503264327) rotate(0 263.71429443359375 271.42857360839844)"><path d="M32 0 C216.07 0.79, 399.75 0.46, 495.43 0 M32 0 C193.3 -0.11, 354.63 -0.08, 495.43 0 M495.43 0 C516.58 0.27, 528.59 12.32, 527.43 32 M495.43 0 C517.09 -2.01, 526.46 11.67, 527.43 32 M527.43 32 C525.8 171.54, 525.88 310.35, 527.43 510.86 M527.43 32 C529.06 132.78, 529.74 233.78, 527.43 510.86 M527.43 510.86 C527.15 530.78, 518.38 542.33, 495.43 542.86 M527.43 510.86 C525.14 530.79, 517.78 542.35, 495.43 542.86 M495.43 542.86 C314.8 541.22, 134.07 541.72, 32 542.86 M495.43 542.86 C398.56 543.46, 302.02 544.09, 32 542.86 M32 542.86 C11.44 542.55, -0.52 530.99, 0 510.86 M32 542.86 C10.75 544.7, -1.08 533.24, 0 510.86 M0 510.86 C-1.18 367.74, -2.01 224.59, 0 32 M0 510.86 C-0.16 365.48, -0.9 220.51, 0 32 M0 32 C1.28 9.92, 10.61 0.65, 32 0 M0 32 C-2.23 12.52, 9.69 -2.09, 32 0" stroke="#2f9e44" stroke-width="2" fill="none"></path></g><g transform="translate(1024.8570556640625 137.16598791350265) rotate(0 66.26197814941406 17.5)"><text x="0" y="0" font-family="Virgil, Segoe UI Emoji" font-size="28px" fill="#2f9e44" text-anchor="start" style="white-space: pre;" direction="ltr" dominant-baseline="text-before-edge">database</text></g><g stroke-linecap="round"><g transform="translate(359.7142333984375 372.59457678069015) rotate(0 95.71432495117188 0.571441650390625)"><path d="M-0.15 0 C24.77 0.19, 122.61 1.13, 149.6 1.13 C176.6 1.13, 154.86 0.08, 161.82 -0.01 C168.77 -0.09, 186.43 0.52, 191.35 0.61 M0.05 -0.12 C25.01 0.09, 122.93 1.27, 149.88 1.31 C176.83 1.36, 154.86 0.24, 161.77 0.15 C168.68 0.06, 186.38 0.69, 191.35 0.77" stroke="#2f9e44" stroke-width="2" fill="none"></path></g><g transform="translate(359.7142333984375 372.59457678069015) rotate(0 95.71432495117188 0.571441650390625)"><path d="M177.26 5.5 C182.37 3.64, 187.45 2.23, 191.35 0.77 M177.26 5.5 C181.38 4.08, 185.71 2.72, 191.35 0.77" stroke="#2f9e44" stroke-width="2" fill="none"></path></g><g transform="translate(359.7142333984375 372.59457678069015) rotate(0 95.71432495117188 0.571441650390625)"><path d="M177.51 -4.66 C182.53 -2.84, 187.52 -0.56, 191.35 0.77 M177.51 -4.66 C181.56 -3.07, 185.81 -1.42, 191.35 0.77" stroke="#2f9e44" stroke-width="2" fill="none"></path></g></g><mask></mask><g stroke-linecap="round" transform="translate(560.857177734375 322.8802518295183) rotate(0 54 53.14283752441406)"><path d="M62.4 1.08 C70.95 1.37, 81.04 5.15, 87.96 10.59 C94.88 16.03, 100.57 25.39, 103.94 33.71 C107.31 42.02, 109.56 51.68, 108.2 60.49 C106.84 69.3, 101.5 79.59, 95.79 86.59 C90.08 93.58, 82.24 99.15, 73.96 102.48 C65.68 105.8, 54.95 107.7, 46.11 106.52 C37.27 105.34, 28.08 100.88, 20.91 95.39 C13.74 89.89, 6.53 81.82, 3.1 73.56 C-0.32 65.29, -0.93 54.58, 0.37 45.77 C1.67 36.97, 5.31 27.63, 10.9 20.73 C16.48 13.82, 25.1 7.52, 33.89 4.33 C42.67 1.13, 58.2 2.01, 63.59 1.56 C68.98 1.12, 66.23 0.87, 66.22 1.64 M57.6 -0.84 C66.13 -1.01, 76.32 5.42, 83.85 10.38 C91.37 15.33, 98.92 21.04, 102.76 28.89 C106.6 36.75, 107.38 48.51, 106.89 57.51 C106.41 66.5, 104.74 75.86, 99.82 82.87 C94.9 89.87, 85.7 95.52, 77.39 99.53 C69.08 103.54, 58.73 107.39, 49.95 106.95 C41.18 106.51, 32.11 102.05, 24.74 96.89 C17.38 91.73, 9.93 84.1, 5.77 75.98 C1.61 67.85, -0.56 56.92, -0.22 48.14 C0.13 39.36, 2.85 30.56, 7.86 23.27 C12.88 15.99, 21.52 8.47, 29.87 4.43 C38.22 0.4, 53.53 -0.54, 57.97 -0.94 C62.4 -1.34, 56.78 1.03, 56.49 2.05" stroke="#2f9e44" stroke-width="2" fill="none"></path></g><g transform="translate(562 440.02304357756515) rotate(0 58.16997528076172 17.5)"><text x="0" y="0" font-family="Virgil, Segoe UI Emoji" font-size="28px" fill="#2f9e44" text-anchor="start" style="white-space: pre;" direction="ltr" dominant-baseline="text-before-edge">procsess</text></g><g transform="translate(564.4284057617188 271.4516629623308) rotate(0 66.84996795654297 17.5)"><text x="0" y="0" font-family="Virgil, Segoe UI Emoji" font-size="28px" fill="#2f9e44" text-anchor="start" style="white-space: pre;" direction="ltr" dominant-baseline="text-before-edge">transform</text></g><g transform="translate(519 490.59457678069015) rotate(0 127.56793212890625 17.5)"><text x="0" y="0" font-family="Virgil, Segoe UI Emoji" font-size="28px" fill="#2f9e44" text-anchor="start" style="white-space: pre;" direction="ltr" dominant-baseline="text-before-edge">perform operations</text></g><g stroke-linecap="round"><g transform="translate(689.4285888671875 368.59457678069015) rotate(0 76.85711669921875 0.2857208251953125)"><path d="M0.08 -0.11 C25.69 0, 128.14 0.58, 153.73 0.71 M-0.05 0.16 C25.52 0.23, 128.04 0.48, 153.63 0.53" stroke="#2f9e44" stroke-width="2" fill="none"></path></g><g transform="translate(689.4285888671875 368.59457678069015) rotate(0 76.85711669921875 0.2857208251953125)"><path d="M125.42 10.72 C135.84 6.9, 146.95 2.86, 153.63 0.53 M125.42 10.72 C135.74 6.9, 146 3.22, 153.63 0.53" stroke="#2f9e44" stroke-width="2" fill="none"></path></g><g transform="translate(689.4285888671875 368.59457678069015) rotate(0 76.85711669921875 0.2857208251953125)"><path d="M125.46 -9.8 C135.88 -5.89, 146.98 -2.19, 153.63 0.53 M125.46 -9.8 C135.79 -6.1, 146.04 -2.26, 153.63 0.53" stroke="#2f9e44" stroke-width="2" fill="none"></path></g></g><mask></mask><g transform="translate(975.999755859375 364.0231961654558) rotate(0 87.47196197509766 17.5)"><text x="0" y="0" font-family="Virgil, Segoe UI Emoji" font-size="28px" fill="#2f9e44" text-anchor="start" style="white-space: pre;" direction="ltr" dominant-baseline="text-before-edge">data is here</text></g><g transform="translate(156.8570556640625 567.1659879135027) rotate(0 3.7939987182617188 17.5)"><text x="0" y="0" font-family="Virgil, Segoe UI Emoji" font-size="28px" fill="#2f9e44" text-anchor="start" style="white-space: pre;" direction="ltr" dominant-baseline="text-before-edge">1</text></g><g transform="translate(578.8570556640625 583.1659879135027) rotate(0 9.967994689941406 17.5)"><text x="0" y="0" font-family="Virgil, Segoe UI Emoji" font-size="28px" fill="#2f9e44" text-anchor="start" style="white-space: pre;" direction="ltr" dominant-baseline="text-before-edge">2</text></g><g transform="translate(1034.8570556640625 575.1659879135027) rotate(0 9.53399658203125 17.5)"><text x="0" y="0" font-family="Virgil, Segoe UI Emoji" font-size="28px" fill="#2f9e44" text-anchor="start" style="white-space: pre;" direction="ltr" dominant-baseline="text-before-edge">3</text></g><g transform="translate(400.5131174626865 986.4516629623308) rotate(0 368.66162109375 31.695123888041962)"><text x="0" y="0" font-family="Virgil, Segoe UI Emoji" font-size="50.712198220867094px" fill="#2f9e44" text-anchor="start" style="white-space: pre;" direction="ltr" dominant-baseline="text-before-edge">Spring Boot Batch Processing</text></g><g stroke-linecap="round" transform="translate(154 1210.3089627670183) rotate(0 206.2857666015625 176.0000457763672)"><path d="M32 0 C140.68 2.63, 248.2 1.58, 380.57 0 M32 0 C107.35 -1.71, 182.15 -2.5, 380.57 0 M380.57 0 C400.51 -0.31, 413.54 10.01, 412.57 32 M380.57 0 C401.97 2.17, 413.71 12.73, 412.57 32 M412.57 32 C412.98 91.8, 412.79 149.31, 412.57 320 M412.57 32 C413.65 96.97, 413.37 160.66, 412.57 320 M412.57 320 C411.86 341.85, 402.61 352.42, 380.57 352 M412.57 320 C413.54 342.99, 402.52 352.05, 380.57 352 M380.57 352 C305.04 352.06, 228.22 351.42, 32 352 M380.57 352 C263.69 349.32, 146.73 349.4, 32 352 M32 352 C10.28 353.72, 1.75 339.97, 0 320 M32 352 C11.98 353.79, -0.13 340.73, 0 320 M0 320 C-1.95 257.86, 0.97 196.05, 0 32 M0 320 C0.26 230.16, 1.28 139.2, 0 32 M0 32 C0.93 9.77, 8.93 0.69, 32 0 M0 32 C0.57 9.91, 11.18 -1.08, 32 0" stroke="#1971c2" stroke-width="2" fill="none"></path></g><g transform="translate(302.8570556640625 1588.1659879135027) rotate(0 37.56598663330078 22.5)"><text x="0" y="0" font-family="Virgil, Segoe UI Emoji" font-size="36px" fill="#1971c2" text-anchor="start" style="white-space: pre;" direction="ltr" dominant-baseline="text-before-edge">JOB</text></g><g stroke-linecap="round"><g transform="translate(265.99993896484375 1575.4518155502215) rotate(0 1.0970758608947904 60.87688822935195)"><path d="M-0.04 0.07 C0.35 20.35, 1.85 101.53, 2.24 121.78 M0.21 -0.03 C0.59 20.21, 1.76 101.27, 2.1 121.55" stroke="#1971c2" stroke-width="2" fill="none"></path></g><g transform="translate(265.99993896484375 1575.4518155502215) rotate(0 1.0970758608947904 60.87688822935195)"><path d="M-8.6 93.52 C-6.26 99.17, -4.07 105.02, 2.1 121.55 M-8.6 93.52 C-6.29 99.52, -4.1 105.35, 2.1 121.55" stroke="#1971c2" stroke-width="2" fill="none"></path></g><g transform="translate(265.99993896484375 1575.4518155502215) rotate(0 1.0970758608947904 60.87688822935195)"><path d="M11.92 93.21 C10.06 98.91, 8.06 104.83, 2.1 121.55 M11.92 93.21 C9.87 99.25, 7.71 105.15, 2.1 121.55" stroke="#1971c2" stroke-width="2" fill="none"></path></g></g><mask></mask><g transform="translate(238.8570556640625 1745.1659879135027) rotate(0 133.5599365234375 22.5)"><text x="0" y="0" font-family="Virgil, Segoe UI Emoji" font-size="36px" fill="#1971c2" text-anchor="start" style="white-space: pre;" direction="ltr" dominant-baseline="text-before-edge">JOb Repository</text></g><g stroke-linecap="round" transform="translate(145.42849731445312 1706.308871214284) rotate(0 234.0000457763672 67.14285278320312)"><path d="M32 0 C171.8 0.94, 312.8 0.34, 436 0 M32 0 C123.46 1.65, 213.86 1.75, 436 0 M436 0 C455.34 0.37, 469.45 8.76, 468 32 M436 0 C455.05 1.26, 468.26 11.67, 468 32 M468 32 C467.58 47.13, 466.17 60.54, 468 102.29 M468 32 C468.15 50.31, 467.15 69.14, 468 102.29 M468 102.29 C468.38 123.85, 455.6 135.99, 436 134.29 M468 102.29 C468.95 124.27, 456.34 134.32, 436 134.29 M436 134.29 C288.25 134.19, 141.33 133.26, 32 134.29 M436 134.29 C320.74 132.29, 206.37 132.91, 32 134.29 M32 134.29 C11.01 134.44, -0.14 122.01, 0 102.29 M32 134.29 C10.46 132.78, 0.34 125.37, 0 102.29 M0 102.29 C0.57 75.28, -0.72 47.24, 0 32 M0 102.29 C-0.71 81.42, 0.86 60.31, 0 32 M0 32 C-0.82 9.23, 9.62 -0.56, 32 0 M0 32 C-1.64 10.83, 12.57 -0.17, 32 0" stroke="#1971c2" stroke-width="2" fill="none"></path></g><g stroke-linecap="round"><g transform="translate(575.1428833007812 1377.1660184310808) rotate(0 121.96649839461583 0.03608599685765057)"><path d="M0.12 0.13 C40.78 0.13, 203.27 -0.03, 243.93 -0.06 M0 0.07 C40.65 0.1, 203.12 0.1, 243.78 0.1" stroke="#1971c2" stroke-width="2" fill="none"></path></g><g transform="translate(575.1428833007812 1377.1660184310808) rotate(0 121.96649839461583 0.03608599685765057)"><path d="M215.59 10.36 C223.04 7.57, 229.85 5.21, 243.78 0.1 M215.59 10.36 C222.93 7.61, 230.19 4.93, 243.78 0.1" stroke="#1971c2" stroke-width="2" fill="none"></path></g><g transform="translate(575.1428833007812 1377.1660184310808) rotate(0 121.96649839461583 0.03608599685765057)"><path d="M215.59 -10.16 C223.03 -7.72, 229.84 -4.85, 243.78 0.1 M215.59 -10.16 C222.96 -7.59, 230.22 -4.95, 243.78 0.1" stroke="#1971c2" stroke-width="2" fill="none"></path></g></g><mask></mask><g stroke-linecap="round" transform="translate(855.7142333984375 1275.4517850326433) rotate(0 144.28570556640625 97.14285278320312)"><path d="M32 0 C80.65 0.83, 127.08 -1.08, 256.57 0 M32 0 C118.95 -1.22, 207.52 -1.99, 256.57 0 M256.57 0 C275.98 0.18, 289.63 12.3, 288.57 32 M256.57 0 C277.76 0.28, 290.43 12.36, 288.57 32 M288.57 32 C287.37 81.74, 290.77 133.78, 288.57 162.29 M288.57 32 C289.38 61.12, 288.01 89.35, 288.57 162.29 M288.57 162.29 C289.85 184.74, 276.87 192.53, 256.57 194.29 M288.57 162.29 C289.64 185.09, 279.91 192.48, 256.57 194.29 M256.57 194.29 C187.68 194.38, 119.06 194.89, 32 194.29 M256.57 194.29 C209.75 193.52, 162.77 194.16, 32 194.29 M32 194.29 C11.27 194.58, 0.51 181.94, 0 162.29 M32 194.29 C10.98 194.97, 0.58 183.11, 0 162.29 M0 162.29 C-0.48 112.67, 2.65 65.41, 0 32 M0 162.29 C0.98 133.51, 1.7 103.48, 0 32 M0 32 C1.47 12.22, 10.14 1.57, 32 0 M0 32 C-0.47 8.66, 9.47 2.04, 32 0" stroke="#1971c2" stroke-width="2" fill="none"></path></g><g transform="translate(954.8570556640625 1355.451693479909) rotate(0 48.43797302246094 22.5)"><text x="0" y="0" font-family="Virgil, Segoe UI Emoji" font-size="36px" fill="#1971c2" text-anchor="start" style="white-space: pre;" direction="ltr" dominant-baseline="text-before-edge">steps</text></g><g stroke-linecap="round"><g transform="translate(1144.28564453125 1310.8802823470965) rotate(0 168.7069513052702 -77.94042333275547)"><path d="M-0.69 0.76 C25.77 -3.9, 110.89 -7.66, 159.1 -28.72 C207.3 -49.79, 258.71 -104.68, 288.55 -125.62 C318.39 -146.56, 329.59 -149.53, 338.11 -154.35 M1.14 0.11 C27.95 -4.85, 113.51 -9.9, 161.33 -30.63 C209.15 -51.35, 258.63 -103.25, 288.07 -124.25 C317.51 -145.25, 329.54 -151.68, 337.96 -156.64" stroke="#1971c2" stroke-width="2" fill="none"></path></g><g transform="translate(1144.28564453125 1310.8802823470965) rotate(0 168.7069513052702 -77.94042333275547)"><path d="M319.23 -134.1 C326.77 -142.87, 332.33 -147.82, 337.96 -156.64 M319.23 -134.1 C325.81 -140.86, 331.01 -148.09, 337.96 -156.64" stroke="#1971c2" stroke-width="2" fill="none"></path></g><g transform="translate(1144.28564453125 1310.8802823470965) rotate(0 168.7069513052702 -77.94042333275547)"><path d="M309.12 -151.41 C319.86 -154.46, 328.72 -153.75, 337.96 -156.64 M309.12 -151.41 C318.7 -152.89, 327.02 -154.78, 337.96 -156.64" stroke="#1971c2" stroke-width="2" fill="none"></path></g></g><mask></mask><g transform="translate(1527.9998168945312 1134.451693479909) rotate(0 61.88397216796875 22.5)"><text x="0" y="0" font-family="Virgil, Segoe UI Emoji" font-size="36px" fill="#1971c2" text-anchor="start" style="white-space: pre;" direction="ltr" dominant-baseline="text-before-edge">Reader</text></g><g transform="translate(1521.8570556640625 1191.1659879135027) rotate(0 131.16595458984375 22.5)"><text x="0" y="0" font-family="Virgil, Segoe UI Emoji" font-size="36px" fill="#1e1e1e" text-anchor="start" style="white-space: pre;" direction="ltr" dominant-baseline="text-before-edge">read the data</text></g><g stroke-linecap="round"><g transform="translate(1146.0001220703125 1380.5945767806902) rotate(0 181.99979761790678 -7.974947340980634)"><path d="M-0.14 0.07 C60.57 -2.63, 303.46 -13.37, 364.14 -16.02 M0.14 -0.05 C60.85 -2.64, 303.46 -13.11, 364.06 -15.79" stroke="#1971c2" stroke-width="2" fill="none"></path></g><g transform="translate(1146.0001220703125 1380.5945767806902) rotate(0 181.99979761790678 -7.974947340980634)"><path d="M336.34 -4.31 C343.01 -6.73, 349.37 -9.9, 364.06 -15.79 M336.34 -4.31 C346.9 -8.75, 357.39 -12.87, 364.06 -15.79" stroke="#1971c2" stroke-width="2" fill="none"></path></g><g transform="translate(1146.0001220703125 1380.5945767806902) rotate(0 181.99979761790678 -7.974947340980634)"><path d="M335.44 -24.82 C342.36 -22.38, 348.93 -20.71, 364.06 -15.79 M335.44 -24.82 C346.31 -21.49, 357.14 -17.86, 364.06 -15.79" stroke="#1971c2" stroke-width="2" fill="none"></path></g></g><mask></mask><g transform="translate(1526.8570556640625 1342.1659879135027) rotate(0 85.75196838378906 22.5)"><text x="0" y="0" font-family="Virgil, Segoe UI Emoji" font-size="36px" fill="#1971c2" text-anchor="start" style="white-space: pre;" direction="ltr" dominant-baseline="text-before-edge">Processor</text></g><g transform="translate(1542.8570556640625 1399.1659879135027) rotate(0 85.9499740600586 22.5)"><text x="0" y="0" font-family="Virgil, Segoe UI Emoji" font-size="36px" fill="#1e1e1e" text-anchor="start" style="white-space: pre;" direction="ltr" dominant-baseline="text-before-edge">transform</text></g><g stroke-linecap="round"><g transform="translate(1150.0001220703125 1441.7374600814715) rotate(0 184.98313514888287 40.74659350216382)"><path d="M-1.18 -0.63 C40.12 1.58, 184.86 -0.6, 246.91 13.19 C308.97 26.98, 350.54 70.75, 371.15 82.12 M0.4 1.65 C42.14 3.53, 187.32 -1.67, 249.06 11.39 C310.8 24.45, 350.52 68.16, 370.84 80" stroke="#1971c2" stroke-width="2" fill="none"></path></g><g transform="translate(1150.0001220703125 1441.7374600814715) rotate(0 184.98313514888287 40.74659350216382)"><path d="M342.1 71.39 C347.5 71.8, 356.04 76.98, 370.84 80 M342.1 71.39 C351.5 74.8, 361.51 77.22, 370.84 80" stroke="#1971c2" stroke-width="2" fill="none"></path></g><g transform="translate(1150.0001220703125 1441.7374600814715) rotate(0 184.98313514888287 40.74659350216382)"><path d="M354.36 54.93 C356.98 58.92, 362.77 67.8, 370.84 80 M354.36 54.93 C359.7 63.81, 365.61 71.74, 370.84 80" stroke="#1971c2" stroke-width="2" fill="none"></path></g></g><mask></mask><g transform="translate(1549.8570556640625 1510.1659879135027) rotate(0 52.86597442626953 22.5)"><text x="0" y="0" font-family="Virgil, Segoe UI Emoji" font-size="36px" fill="#1971c2" text-anchor="start" style="white-space: pre;" direction="ltr" dominant-baseline="text-before-edge">Writer</text></g><g transform="translate(1781.4287109375 1090.8802823470965) rotate(0 45.4285888671875 72)" stroke="none"><path fill="#1971c2" d="M 0,-3.38 Q 0,-3.38 6.24,-3.28 12.48,-3.17 21.21,-3.10 29.94,-3.02 37.93,-2.97 45.91,-2.91 52.42,-2.87 58.94,-2.83 63.43,-2.42 67.93,-2.00 70.72,-0.25 73.52,1.48 75.58,5.47 77.64,9.45 80.00,18.46 82.37,27.46 84.16,38.72 85.95,49.97 87.01,59.86 88.08,69.75 88.52,78.60 88.96,87.46 89.30,93.31 89.64,99.16 90.26,103.51 90.87,107.86 91.42,111.59 91.96,115.32 92.37,117.93 92.79,120.54 93.33,123.30 93.87,126.06 94.21,128.73 94.55,131.39 94.76,134.03 94.96,136.66 93.75,139.87 92.55,143.07 88.90,144.27 85.26,145.46 79.55,145.60 73.83,145.74 66.55,145.71 59.27,145.67 51.92,145.60 44.57,145.53 37.87,145.62 31.17,145.71 27.28,146.10 23.38,146.48 20.43,146.95 17.49,147.42 16.93,147.39 16.37,147.35 15.86,147.14 15.34,146.93 14.92,146.57 14.50,146.21 14.21,145.73 13.93,145.25 13.81,144.70 13.70,144.16 13.76,143.60 13.83,143.05 14.06,142.55 14.30,142.04 14.69,141.64 15.07,141.24 15.57,140.98 16.06,140.72 16.61,140.64 17.16,140.55 17.71,140.64 18.26,140.74 18.75,141.00 19.24,141.27 19.62,141.67 20.00,142.08 20.23,142.59 20.46,143.10 20.52,143.65 20.58,144.21 20.45,144.75 20.33,145.29 20.04,145.77 19.75,146.24 19.32,146.60 18.89,146.96 18.37,147.16 17.86,147.36 17.30,147.39 16.74,147.42 16.21,147.26 15.67,147.11 15.21,146.80 14.75,146.48 14.42,146.03 14.08,145.59 13.91,145.06 13.73,144.53 13.74,143.97 13.74,143.41 13.92,142.89 14.11,142.36 14.45,141.92 14.79,141.48 15.25,141.17 15.71,140.86 16.25,140.71 16.79,140.57 16.79,140.57 16.79,140.57 19.77,140.43 22.75,140.30 26.87,139.86 31.00,139.43 37.76,139.14 44.52,138.86 51.83,138.67 59.13,138.48 66.24,138.17 73.35,137.85 79.94,137.38 86.53,136.90 86.58,134.42 86.64,131.93 86.63,129.51 86.63,127.08 86.35,124.05 86.08,121.03 86.12,118.52 86.16,116.01 85.82,112.33 85.49,108.65 84.81,104.07 84.14,99.50 83.75,93.63 83.36,87.75 82.86,79.07 82.37,70.39 81.23,60.66 80.09,50.93 78.24,40.00 76.39,29.07 74.06,20.66 71.73,12.25 69.33,7.78 66.94,3.31 62.94,3.07 58.94,2.83 52.42,2.87 45.91,2.91 37.93,2.97 29.94,3.02 21.21,3.10 12.48,3.17 6.24,3.28 0,3.38 -0.40,3.33 -0.81,3.28 -1.19,3.14 -1.57,2.99 -1.90,2.76 -2.24,2.53 -2.51,2.22 -2.78,1.92 -2.97,1.56 -3.16,1.20 -3.26,0.80 -3.36,0.40 -3.36,-0.00 -3.36,-0.40 -3.26,-0.80 -3.16,-1.20 -2.97,-1.56 -2.78,-1.92 -2.51,-2.22 -2.24,-2.53 -1.90,-2.76 -1.57,-2.99 -1.19,-3.14 -0.81,-3.28 -0.40,-3.33 0.00,-3.38 0.00,-3.38 L 0,-3.38 Z"></path></g><g transform="translate(1763.142822265625 1302.8802823470965) rotate(0 24.28570556640625 77.42861938476562)" stroke="none"><path fill="#1971c2" d="M 0.15,-3.70 Q 0.15,-3.70 4.09,-3.47 8.03,-3.23 11.80,-2.84 15.57,-2.44 19.52,-1.72 23.47,-0.99 25.83,-0.72 28.20,-0.45 32.17,4.26 36.14,8.98 38.22,17.75 40.31,26.52 41.79,35.71 43.27,44.91 44.84,57.04 46.41,69.17 47.38,79.12 48.34,89.06 48.89,96.43 49.44,103.79 49.66,110.91 49.88,118.03 49.96,124.02 50.04,130.00 50.39,134.41 50.74,138.83 51.08,142.09 51.42,145.36 51.41,149.25 51.40,153.14 47.76,155.32 44.12,157.50 40.22,157.63 36.31,157.76 31.74,157.93 27.18,158.10 22.31,158.11 17.45,158.12 15.09,158.37 12.73,158.62 11.00,158.84 9.27,159.06 8.59,158.97 7.92,158.88 7.30,158.58 6.69,158.28 6.21,157.80 5.73,157.32 5.42,156.71 5.12,156.10 5.02,155.43 4.93,154.75 5.06,154.08 5.18,153.41 5.51,152.82 5.85,152.22 6.35,151.77 6.86,151.31 7.48,151.04 8.11,150.77 8.79,150.71 9.47,150.65 10.13,150.82 10.79,150.98 11.36,151.34 11.94,151.71 12.37,152.24 12.80,152.77 13.03,153.41 13.27,154.05 13.29,154.73 13.31,155.41 13.11,156.06 12.92,156.71 12.52,157.27 12.12,157.82 11.57,158.22 11.02,158.62 10.37,158.82 9.72,159.02 9.04,159.01 8.36,158.99 7.72,158.76 7.08,158.52 6.54,158.10 6.01,157.67 5.64,157.10 5.28,156.53 5.11,155.87 4.94,155.21 5.00,154.53 5.05,153.85 5.32,153.22 5.58,152.60 6.04,152.09 6.49,151.58 7.08,151.24 7.67,150.90 8.34,150.77 9.01,150.64 9.01,150.64 9.01,150.64 10.75,150.76 12.50,150.87 14.85,150.98 17.20,151.09 21.86,150.76 26.52,150.44 31.23,149.82 35.94,149.20 39.17,149.02 42.40,148.83 43.82,147.25 45.24,145.66 45.26,142.47 45.28,139.28 44.88,134.69 44.48,130.10 44.34,124.17 44.20,118.24 43.91,111.25 43.62,104.27 42.96,96.98 42.30,89.70 41.20,79.87 40.10,70.04 38.34,58.07 36.58,46.09 34.88,37.22 33.18,28.36 30.87,20.14 28.56,11.91 27.64,9.52 26.72,7.13 24.50,6.51 22.28,5.89 18.53,5.29 14.78,4.69 11.26,4.29 7.73,3.89 3.79,3.80 -0.15,3.70 -0.59,3.63 -1.03,3.56 -1.44,3.38 -1.85,3.20 -2.21,2.94 -2.57,2.67 -2.85,2.32 -3.13,1.97 -3.32,1.57 -3.51,1.16 -3.60,0.73 -3.69,0.29 -3.67,-0.15 -3.66,-0.60 -3.53,-1.02 -3.41,-1.45 -3.18,-1.84 -2.96,-2.23 -2.65,-2.55 -2.34,-2.87 -1.96,-3.11 -1.58,-3.35 -1.16,-3.49 -0.73,-3.63 -0.29,-3.67 0.15,-3.70 0.15,-3.70 L 0.15,-3.70 Z"></path></g><g transform="translate(1717.4287109375 1494.8802823470965) rotate(0 29.71429443359375 60.857147216796875)" stroke="none"><path fill="#1971c2" d="M -0.63,-4.24 Q -0.63,-4.24 2.65,-4.73 5.93,-5.21 10.27,-5.39 14.60,-5.58 17.94,-5.79 21.27,-6.00 25.18,-6.00 29.09,-5.99 32.22,-6.09 35.35,-6.20 39.11,-5.62 42.86,-5.03 44.40,-2.96 45.93,-0.89 46.96,3.94 47.98,8.78 49.31,17.32 50.64,25.86 52.77,37.46 54.89,49.05 56.58,63.97 58.28,78.89 59.29,89.15 60.30,99.41 60.87,105.58 61.43,111.74 61.87,114.87 62.30,118.00 61.10,120.85 59.90,123.70 56.09,124.57 52.28,125.43 47.13,125.62 41.97,125.81 37.86,126.03 33.75,126.26 30.47,126.51 27.19,126.75 24.63,127.17 22.07,127.60 21.47,127.65 20.87,127.71 20.29,127.57 19.70,127.43 19.19,127.11 18.68,126.79 18.30,126.32 17.92,125.86 17.71,125.30 17.49,124.73 17.47,124.13 17.45,123.53 17.62,122.95 17.79,122.38 18.13,121.88 18.48,121.39 18.97,121.04 19.45,120.68 20.02,120.50 20.60,120.31 21.20,120.32 21.80,120.34 22.37,120.54 22.93,120.74 23.41,121.11 23.88,121.48 24.21,121.99 24.54,122.49 24.69,123.07 24.84,123.66 24.80,124.26 24.76,124.86 24.52,125.41 24.29,125.97 23.89,126.42 23.50,126.87 22.98,127.17 22.46,127.47 21.87,127.59 21.28,127.71 20.68,127.64 20.08,127.56 19.54,127.30 19.00,127.04 18.57,126.62 18.14,126.20 17.87,125.66 17.59,125.12 17.51,124.53 17.42,123.93 17.53,123.34 17.63,122.75 17.92,122.22 18.22,121.69 18.66,121.29 19.10,120.88 19.65,120.64 20.20,120.39 20.20,120.39 20.20,120.39 23.56,120.05 26.91,119.71 30.09,119.70 33.27,119.69 37.39,119.30 41.52,118.91 46.46,118.43 51.41,117.96 53.58,118.24 55.75,118.51 55.66,115.43 55.56,112.34 54.87,106.20 54.18,100.06 53.01,89.87 51.84,79.67 49.96,65.03 48.07,50.39 45.63,38.80 43.20,27.21 41.53,19.08 39.86,10.95 37.64,6.33 35.43,1.71 32.33,1.66 29.23,1.62 25.44,1.76 21.66,1.90 18.47,2.01 15.29,2.11 11.24,2.68 7.20,3.24 3.92,3.74 0.63,4.24 0.11,4.25 -0.39,4.27 -0.90,4.16 -1.40,4.05 -1.87,3.82 -2.33,3.60 -2.73,3.26 -3.13,2.93 -3.43,2.51 -3.74,2.10 -3.94,1.62 -4.13,1.14 -4.21,0.63 -4.29,0.12 -4.24,-0.39 -4.19,-0.91 -4.02,-1.39 -3.85,-1.88 -3.57,-2.32 -3.29,-2.75 -2.91,-3.10 -2.53,-3.46 -2.08,-3.71 -1.63,-3.96 -1.13,-4.10 -0.63,-4.24 -0.63,-4.24 L -0.63,-4.24 Z"></path></g><g transform="translate(1459.142822265625 1561.737338011159) rotate(0 141.73196411132812 22.5)"><text x="0" y="0" font-family="Virgil, Segoe UI Emoji" font-size="36px" fill="#1e1e1e" text-anchor="start" style="white-space: pre;" direction="ltr" dominant-baseline="text-before-edge">writer the data</text></g><g transform="translate(1896.28564453125 1119.1659879135027) rotate(0 68.11196899414062 45)"><text x="0" y="0" font-family="Virgil, Segoe UI Emoji" font-size="36px" fill="#2f9e44" text-anchor="start" style="white-space: pre;" direction="ltr" dominant-baseline="text-before-edge">Source </text><text x="0" y="45" font-family="Virgil, Segoe UI Emoji" font-size="36px" fill="#2f9e44" text-anchor="start" style="white-space: pre;" direction="ltr" dominant-baseline="text-before-edge">CSV file</text></g><g transform="translate(1855.8570556640625 1355.1659879135027) rotate(0 36.70198059082031 22.5)"><text x="0" y="0" font-family="Virgil, Segoe UI Emoji" font-size="36px" fill="#2f9e44" text-anchor="start" style="white-space: pre;" direction="ltr" dominant-baseline="text-before-edge">logic</text></g><g transform="translate(1844.8570556640625 1545.1659879135027) rotate(0 143.4779510498047 45)"><text x="0" y="0" font-family="Virgil, Segoe UI Emoji" font-size="36px" fill="#2f9e44" text-anchor="start" style="white-space: pre;" direction="ltr" dominant-baseline="text-before-edge">Destination</text><text x="0" y="45" font-family="Virgil, Segoe UI Emoji" font-size="36px" fill="#2f9e44" text-anchor="start" style="white-space: pre;" direction="ltr" dominant-baseline="text-before-edge">MYSQL Datbase</text></g><g transform="translate(2076.285888671875 1065.1660031722918) rotate(0 1.14276123046875 83.71428680419922)" stroke="none"><path fill="#2f9e44" d="M 3.12,-0.13 Q 3.12,-0.13 3.38,7.25 3.64,14.65 3.73,23.58 3.82,32.52 3.35,43.28 2.88,54.04 2.67,64.29 2.46,74.55 2.03,84.38 1.61,94.20 1.59,104.55 1.56,114.90 1.88,122.72 2.19,130.53 2.81,136.59 3.43,142.65 4.18,147.83 4.93,153.01 5.49,156.90 6.06,160.78 6.63,163.92 7.21,167.06 7.18,167.58 7.16,168.10 6.97,168.59 6.78,169.08 6.44,169.48 6.10,169.88 5.66,170.15 5.21,170.42 4.70,170.54 4.19,170.65 3.67,170.60 3.15,170.55 2.67,170.33 2.19,170.11 1.81,169.75 1.43,169.40 1.18,168.94 0.93,168.47 0.85,167.96 0.76,167.44 0.84,166.92 0.92,166.41 1.17,165.94 1.41,165.48 1.79,165.12 2.16,164.76 2.64,164.53 3.11,164.31 3.63,164.25 4.15,164.19 4.66,164.30 5.18,164.41 5.63,164.68 6.08,164.95 6.42,165.34 6.76,165.74 6.95,166.23 7.15,166.71 7.18,167.23 7.21,167.76 7.08,168.26 6.94,168.77 6.65,169.20 6.36,169.64 5.94,169.95 5.53,170.27 5.03,170.44 4.54,170.61 4.01,170.62 3.49,170.62 2.99,170.45 2.50,170.29 2.08,169.98 1.66,169.66 1.36,169.23 1.07,168.80 0.92,168.29 0.78,167.79 0.78,167.79 0.78,167.79 0.64,164.64 0.49,161.48 0.08,157.63 -0.32,153.78 -1.09,148.49 -1.86,143.19 -2.51,136.97 -3.15,130.75 -3.49,122.83 -3.82,114.90 -3.83,104.44 -3.83,93.98 -3.45,84.21 -3.06,74.45 -2.90,64.13 -2.74,53.81 -2.34,43.21 -1.95,32.61 -2.14,23.76 -2.32,14.91 -2.72,7.52 -3.12,0.13 -3.09,-0.23 -3.06,-0.61 -2.94,-0.97 -2.82,-1.32 -2.62,-1.64 -2.42,-1.96 -2.15,-2.22 -1.88,-2.49 -1.56,-2.67 -1.23,-2.86 -0.87,-2.97 -0.51,-3.08 -0.13,-3.09 0.23,-3.11 0.60,-3.04 0.97,-2.96 1.31,-2.80 1.65,-2.64 1.95,-2.41 2.24,-2.17 2.47,-1.87 2.69,-1.57 2.84,-1.22 2.99,-0.88 3.05,-0.50 3.12,-0.13 3.12,-0.13 L 3.12,-0.13 Z"></path></g><g transform="translate(2058.0001220703125 1216.0231351302996) rotate(0 20.8570556640625 12.000030517578125)" stroke="none"><path fill="#2f9e44" d="M 3.07,-1.97 Q 3.07,-1.97 5.91,2.69 8.75,7.37 11.60,12.39 14.44,17.40 16.62,21.54 18.80,25.69 20.35,27.69 21.90,29.70 23.25,25.11 24.59,20.51 27.70,14.55 30.81,8.59 32.77,3.59 34.73,-1.41 36.38,-4.14 38.03,-6.86 38.21,-7.22 38.40,-7.57 38.66,-7.88 38.92,-8.18 39.25,-8.41 39.58,-8.63 39.95,-8.78 40.32,-8.92 40.72,-8.97 41.12,-9.02 41.51,-8.98 41.91,-8.93 42.28,-8.79 42.66,-8.66 42.99,-8.43 43.32,-8.21 43.59,-7.91 43.85,-7.61 44.04,-7.26 44.23,-6.91 44.33,-6.52 44.43,-6.13 44.43,-5.73 44.43,-5.33 44.34,-4.94 44.25,-4.55 44.31,-4.75 44.37,-4.95 44.16,-4.46 43.95,-3.96 43.60,-3.56 43.25,-3.15 42.79,-2.88 42.32,-2.61 41.80,-2.50 41.27,-2.40 40.74,-2.46 40.21,-2.53 39.72,-2.76 39.24,-2.99 38.85,-3.37 38.47,-3.74 38.23,-4.22 37.98,-4.69 37.90,-5.22 37.82,-5.76 37.92,-6.28 38.01,-6.81 38.27,-7.28 38.53,-7.75 38.92,-8.12 39.32,-8.48 39.81,-8.70 40.30,-8.92 40.83,-8.97 41.36,-9.02 41.89,-8.89 42.41,-8.77 42.86,-8.49 43.32,-8.21 43.66,-7.79 44.00,-7.38 44.19,-6.88 44.39,-6.38 44.41,-5.84 44.43,-5.30 44.28,-4.79 44.13,-4.28 43.82,-3.84 43.51,-3.40 43.08,-3.08 42.65,-2.76 42.14,-2.59 41.63,-2.43 41.09,-2.44 40.56,-2.45 40.05,-2.62 39.54,-2.80 39.12,-3.13 38.70,-3.46 38.40,-3.91 38.11,-4.36 37.97,-4.88 37.84,-5.40 37.93,-6.13 38.03,-6.86 38.21,-7.22 38.40,-7.57 38.66,-7.87 38.92,-8.18 39.25,-8.41 39.58,-8.63 39.95,-8.78 40.32,-8.92 40.72,-8.97 41.12,-9.02 41.51,-8.98 41.91,-8.93 42.28,-8.79 42.66,-8.66 42.99,-8.43 43.32,-8.21 43.59,-7.91 43.85,-7.61 44.04,-7.26 44.23,-6.91 44.33,-6.52 44.43,-6.13 44.43,-5.73 44.43,-5.33 44.34,-4.94 44.25,-4.55 42.47,-1.88 40.69,0.79 38.78,6.19 36.87,11.60 33.98,17.75 31.08,23.91 25.62,30.27 20.17,36.62 18.15,35.03 16.13,33.44 14.81,31.02 13.49,28.59 11.23,24.61 8.97,20.63 6.02,15.83 3.06,11.02 -0.00,6.50 -3.07,1.97 -3.27,1.58 -3.46,1.18 -3.55,0.75 -3.64,0.32 -3.63,-0.11 -3.61,-0.56 -3.49,-0.98 -3.37,-1.40 -3.16,-1.79 -2.94,-2.17 -2.63,-2.49 -2.33,-2.81 -1.96,-3.05 -1.59,-3.29 -1.17,-3.43 -0.75,-3.58 -0.31,-3.61 0.12,-3.65 0.55,-3.59 0.99,-3.52 1.39,-3.35 1.80,-3.18 2.16,-2.92 2.51,-2.65 2.79,-2.31 3.07,-1.97 3.07,-1.97 L 3.07,-1.97 Z"></path></g><g transform="translate(2034.0001220703125 1300.5945767806902) rotate(0 3.71429443359375 50)" stroke="none"><path fill="#2f9e44" d="M 3.55,-0.61 Q 3.55,-0.61 4.74,6.96 5.92,14.54 6.40,23.69 6.89,32.84 7.38,42.07 7.88,51.31 8.39,61.82 8.91,72.32 9.12,79.28 9.32,86.23 9.63,90.11 9.94,93.99 10.33,96.88 10.72,99.77 10.67,100.30 10.62,100.84 10.40,101.32 10.19,101.81 9.82,102.21 9.46,102.60 8.99,102.86 8.52,103.11 8.00,103.21 7.47,103.30 6.94,103.22 6.41,103.14 5.93,102.90 5.46,102.65 5.09,102.27 4.71,101.89 4.48,101.41 4.25,100.92 4.18,100.39 4.12,99.86 4.23,99.34 4.34,98.81 4.61,98.35 4.87,97.89 5.28,97.54 5.68,97.19 6.17,96.98 6.67,96.78 7.20,96.74 7.74,96.70 8.25,96.84 8.77,96.98 9.22,97.27 9.66,97.56 9.99,97.99 10.32,98.41 10.50,98.91 10.68,99.42 10.69,99.95 10.69,100.49 10.53,101.00 10.37,101.50 10.05,101.93 9.73,102.36 9.29,102.67 8.85,102.98 8.34,103.13 7.83,103.28 7.29,103.26 6.76,103.23 6.26,103.04 5.76,102.85 5.34,102.51 4.93,102.17 4.65,101.71 4.37,101.26 4.25,100.74 4.12,100.22 4.12,100.22 4.12,100.22 4.12,97.30 4.12,94.39 3.89,90.41 3.67,86.43 3.39,79.53 3.11,72.64 2.49,62.16 1.87,51.68 1.23,42.45 0.60,33.23 -0.03,24.45 -0.66,15.68 -2.11,8.15 -3.55,0.61 -3.58,0.18 -3.60,-0.25 -3.52,-0.67 -3.43,-1.10 -3.25,-1.50 -3.07,-1.89 -2.80,-2.23 -2.53,-2.57 -2.18,-2.84 -1.84,-3.10 -1.44,-3.28 -1.04,-3.45 -0.61,-3.53 -0.18,-3.60 0.24,-3.57 0.68,-3.54 1.09,-3.41 1.51,-3.28 1.88,-3.05 2.25,-2.82 2.55,-2.51 2.86,-2.20 3.08,-1.82 3.30,-1.45 3.43,-1.03 3.55,-0.61 3.55,-0.61 L 3.55,-0.61 Z"></path></g><g transform="translate(2023.142822265625 1389.1659879135027) rotate(0 20 6.5715179443359375)" stroke="none"><path fill="#2f9e44" d="M 3.35,-1.75 Q 3.35,-1.75 5.09,1.72 6.84,5.20 8.53,9.09 10.22,12.98 12.05,15.87 13.89,18.75 18.34,15.95 22.80,13.15 25.70,8.51 28.60,3.86 31.06,-0.72 33.51,-5.31 34.31,-7.89 35.11,-10.47 35.70,-12.51 36.28,-14.55 36.61,-15.11 36.93,-15.66 37.41,-16.09 37.90,-16.51 38.49,-16.76 39.08,-17.00 39.73,-17.05 40.37,-17.09 40.99,-16.93 41.61,-16.77 42.15,-16.41 42.68,-16.06 43.08,-15.56 43.48,-15.05 43.69,-14.44 43.91,-13.84 43.91,-13.20 43.92,-12.55 43.73,-11.94 43.53,-11.33 43.15,-10.81 42.77,-10.29 42.24,-9.93 41.72,-9.56 41.10,-9.38 40.48,-9.20 39.84,-9.22 39.20,-9.25 38.60,-9.48 38.00,-9.70 37.50,-10.11 37.00,-10.52 36.67,-11.07 36.33,-11.61 36.18,-12.24 36.03,-12.87 36.09,-13.51 36.15,-14.15 36.41,-14.73 36.67,-15.32 37.11,-15.79 37.55,-16.27 38.11,-16.57 38.67,-16.88 39.30,-17.00 39.94,-17.11 40.57,-17.02 41.21,-16.92 41.78,-16.63 42.35,-16.33 42.80,-15.87 43.25,-15.41 43.53,-14.83 43.81,-14.26 43.89,-13.62 43.96,-12.98 43.84,-12.35 43.71,-11.72 43.71,-11.72 43.71,-11.72 42.78,-9.81 41.86,-7.90 40.62,-5.12 39.38,-2.35 37.03,2.55 34.68,7.45 31.69,12.79 28.70,18.12 25.13,22.41 21.56,26.69 18.13,27.71 14.71,28.72 11.32,25.57 7.93,22.42 5.97,19.15 4.01,15.88 2.19,12.23 0.38,8.59 -1.48,5.17 -3.35,1.75 -3.51,1.32 -3.67,0.90 -3.72,0.44 -3.78,-0.00 -3.72,-0.45 -3.67,-0.90 -3.50,-1.33 -3.34,-1.76 -3.08,-2.13 -2.82,-2.51 -2.48,-2.81 -2.14,-3.11 -1.74,-3.32 -1.33,-3.53 -0.89,-3.64 -0.45,-3.75 0.00,-3.75 0.45,-3.75 0.90,-3.64 1.34,-3.53 1.74,-3.32 2.15,-3.11 2.49,-2.80 2.83,-2.50 3.09,-2.13 3.35,-1.75 3.35,-1.75 L 3.35,-1.75 Z"></path></g><g transform="translate(2144.8570556640625 1512.0231656478777) rotate(0 -2.5711669921875 70)" stroke="none"><path fill="#2f9e44" d="M 3.36,-0.08 Q 3.36,-0.08 3.43,6.49 3.49,13.06 2.99,20.25 2.49,27.45 1.93,34.08 1.36,40.72 0.61,47.19 -0.13,53.66 -0.62,59.63 -1.11,65.60 -1.32,70.41 -1.54,75.21 -1.64,79.71 -1.74,84.21 -1.70,88.09 -1.67,91.98 -1.55,95.43 -1.44,98.89 -1.26,101.67 -1.08,104.46 -0.77,106.77 -0.47,109.09 -0.13,112.76 0.21,116.43 0.41,119.02 0.62,121.60 0.83,123.82 1.04,126.04 0.71,129.24 0.39,132.44 0.42,136.27 0.45,140.11 0.27,141.09 0.09,142.08 -0.39,142.95 -0.87,143.82 -1.61,144.49 -2.35,145.16 -3.26,145.57 -4.17,145.97 -5.17,146.06 -6.16,146.14 -7.13,145.91 -8.10,145.68 -8.95,145.15 -9.79,144.62 -10.42,143.84 -11.05,143.07 -11.40,142.14 -11.76,141.20 -11.79,140.21 -11.82,139.21 -11.54,138.25 -11.25,137.30 -10.68,136.48 -10.10,135.67 -9.30,135.08 -8.49,134.49 -7.54,134.19 -6.59,133.89 -5.59,133.91 -4.59,133.93 -3.66,134.27 -2.72,134.60 -1.93,135.22 -1.15,135.84 -0.61,136.68 -0.06,137.51 0.17,138.48 0.42,139.45 0.35,140.44 0.28,141.44 -0.10,142.36 -0.49,143.28 -1.15,144.02 -1.81,144.77 -2.67,145.27 -3.54,145.77 -4.52,145.96 -5.49,146.16 -6.48,146.03 -7.47,145.90 -8.37,145.47 -9.27,145.03 -9.98,144.33 -10.69,143.63 -11.14,142.74 -11.59,141.85 -11.73,140.86 -11.87,139.88 -11.87,139.88 -11.87,139.88 -11.69,136.32 -11.50,132.76 -10.84,129.40 -10.18,126.04 -9.97,123.82 -9.76,121.60 -9.55,119.02 -9.35,116.43 -9.00,112.76 -8.66,109.08 -8.35,106.76 -8.04,104.44 -7.84,101.65 -7.65,98.86 -7.50,95.39 -7.36,91.92 -7.25,88.02 -7.15,84.11 -7.08,79.55 -7.01,74.99 -6.83,70.08 -6.65,65.17 -6.21,59.11 -5.76,53.04 -5.10,46.66 -4.43,40.28 -3.98,33.68 -3.53,27.09 -3.18,20.15 -2.83,13.22 -3.10,6.65 -3.36,0.08 -3.32,-0.31 -3.28,-0.72 -3.15,-1.10 -3.02,-1.49 -2.79,-1.82 -2.57,-2.16 -2.27,-2.44 -1.98,-2.72 -1.62,-2.92 -1.27,-3.11 -0.88,-3.22 -0.48,-3.33 -0.08,-3.34 0.32,-3.35 0.71,-3.26 1.11,-3.17 1.47,-2.99 1.84,-2.81 2.15,-2.55 2.46,-2.29 2.70,-1.96 2.94,-1.63 3.09,-1.26 3.24,-0.88 3.30,-0.48 3.36,-0.08 3.36,-0.08 L 3.36,-0.08 Z"></path></g><g transform="translate(2112.285888671875 1633.1661099838152) rotate(0 23.71417236328125 10)" stroke="none"><path fill="#2f9e44" d="M 3.43,-3.43 Q 3.43,-3.43 5.82,-0.89 8.22,1.63 10.54,4.03 12.87,6.42 15.17,8.76 17.47,11.10 19.73,13.93 21.98,16.75 23.76,18.80 25.53,20.85 27.95,18.83 30.38,16.81 31.87,14.04 33.36,11.26 34.87,8.29 36.38,5.32 37.66,2.79 38.95,0.25 40.03,-3.36 41.11,-6.98 41.90,-8.70 42.69,-10.42 43.21,-11.12 43.72,-11.81 44.42,-12.30 45.13,-12.79 45.96,-13.03 46.78,-13.27 47.64,-13.24 48.50,-13.20 49.30,-12.89 50.11,-12.59 50.77,-12.04 51.43,-11.49 51.88,-10.76 52.34,-10.03 52.53,-9.19 52.73,-8.35 52.65,-7.49 52.56,-6.64 52.21,-5.85 51.86,-5.07 51.28,-4.44 50.69,-3.80 49.94,-3.39 49.18,-2.98 48.34,-2.83 47.49,-2.68 46.64,-2.81 45.79,-2.94 45.02,-3.33 44.26,-3.72 43.66,-4.34 43.06,-4.96 42.69,-5.73 42.32,-6.51 42.22,-7.36 42.11,-8.22 42.29,-9.06 42.46,-9.90 42.89,-10.64 43.33,-11.39 43.98,-11.95 44.63,-12.52 45.42,-12.84 46.22,-13.17 47.07,-13.23 47.93,-13.29 48.76,-13.07 49.59,-12.85 50.31,-12.37 51.03,-11.90 51.56,-11.22 52.09,-10.54 52.37,-9.73 52.66,-8.92 52.67,-8.06 52.68,-7.20 52.42,-6.38 52.15,-5.56 52.15,-5.56 52.15,-5.57 50.79,-2.97 49.42,-0.37 48.49,2.16 47.56,4.70 46.30,7.06 45.04,9.43 43.65,12.58 42.26,15.73 40.79,18.85 39.32,21.97 37.19,25.42 35.06,28.87 31.97,30.58 28.87,32.28 26.09,31.89 23.30,31.50 20.90,29.07 18.49,26.64 16.81,24.48 15.12,22.33 13.11,19.90 11.10,17.47 8.76,15.17 6.42,12.87 4.03,10.54 1.63,8.22 -0.89,5.82 -3.43,3.43 -3.79,2.97 -4.15,2.51 -4.39,1.97 -4.63,1.44 -4.73,0.86 -4.84,0.29 -4.81,-0.29 -4.77,-0.87 -4.60,-1.43 -4.42,-1.99 -4.12,-2.49 -3.82,-2.99 -3.40,-3.40 -2.99,-3.82 -2.49,-4.12 -1.99,-4.42 -1.43,-4.60 -0.87,-4.77 -0.29,-4.81 0.29,-4.84 0.86,-4.73 1.44,-4.63 1.97,-4.39 2.51,-4.15 2.97,-3.79 3.43,-3.43 3.43,-3.43 L 3.43,-3.43 Z"></path></g><g stroke-linecap="round" transform="translate(663.7142333984375 2074.8802823470965) rotate(0 244 167.71429443359375)"><path d="M32 0 C173.06 0.05, 315.22 0.01, 456 0 M32 0 C168.57 0.28, 304.72 1.09, 456 0 M456 0 C477.34 -0.37, 488.58 11, 488 32 M456 0 C476.77 1.87, 489.42 11.96, 488 32 M488 32 C490.34 110.55, 489.85 185.97, 488 303.43 M488 32 C486.27 102.45, 487.01 172.35, 488 303.43 M488 303.43 C487.1 325.66, 478.35 334.05, 456 335.43 M488 303.43 C487.43 325.24, 479.05 335, 456 335.43 M456 335.43 C351.68 335.09, 246.51 334.98, 32 335.43 M456 335.43 C310.56 334.95, 166.54 334.71, 32 335.43 M32 335.43 C10.91 337.24, -0.4 323.46, 0 303.43 M32 335.43 C12.85 335.09, -1.05 324.1, 0 303.43 M0 303.43 C2.89 225.56, 0.46 149.25, 0 32 M0 303.43 C-1 197.77, -0.6 93.32, 0 32 M0 32 C-1.64 11.85, 9.3 0.23, 32 0 M0 32 C-0.12 11.27, 12.52 -0.69, 32 0" stroke="#2f9e44" stroke-width="2" fill="none"></path></g><g transform="translate(797.8570556640625 2150.1659879135027) rotate(0 96.01197052001953 45)"><text x="0" y="0" font-family="Virgil, Segoe UI Emoji" font-size="36px" fill="#2f9e44" text-anchor="start" style="white-space: pre;" direction="ltr" dominant-baseline="text-before-edge">spring boot</text><text x="0" y="45" font-family="Virgil, Segoe UI Emoji" font-size="36px" fill="#2f9e44" text-anchor="start" style="white-space: pre;" direction="ltr" dominant-baseline="text-before-edge">application</text></g><g stroke-linecap="round"><g transform="translate(1174.5714111328125 2236.59457678069) rotate(0 137.52359727941337 1.7130550513065828)"><path d="M0.1 0.08 C45.88 0.61, 229 2.76, 274.78 3.31 M-0.04 -0.01 C45.79 0.53, 229.23 2.85, 275.09 3.44" stroke="#2f9e44" stroke-width="2" fill="none"></path></g><g transform="translate(1174.5714111328125 2236.59457678069) rotate(0 137.52359727941337 1.7130550513065828)"><path d="M246.77 13.34 C256.48 9.82, 265.66 6.44, 275.09 3.44 M246.77 13.34 C254.44 10.68, 261.89 7.98, 275.09 3.44" stroke="#2f9e44" stroke-width="2" fill="none"></path></g><g transform="translate(1174.5714111328125 2236.59457678069) rotate(0 137.52359727941337 1.7130550513065828)"><path d="M247.03 -7.18 C256.68 -3.77, 265.76 -0.21, 275.09 3.44 M247.03 -7.18 C254.64 -4.34, 262.02 -1.55, 275.09 3.44" stroke="#2f9e44" stroke-width="2" fill="none"></path></g></g><mask></mask><g stroke-linecap="round" transform="translate(1486.5714111328125 2096.0231046127215) rotate(0 165.1429443359375 148.85711669921875)"><path d="M152.69 0.69 C167.89 -2.76, 185.33 0.08, 201.01 3.42 C216.7 6.76, 232.77 13.24, 246.8 20.73 C260.83 28.21, 274 37.74, 285.21 48.34 C296.42 58.94, 307.04 71.37, 314.08 84.32 C321.12 97.26, 324.95 111.55, 327.45 126.02 C329.96 140.5, 331.37 156.69, 329.1 171.16 C326.83 185.63, 320.88 199.59, 313.83 212.85 C306.77 226.12, 297.66 239.87, 286.77 250.75 C275.89 261.62, 262.62 270.76, 248.51 278.1 C234.4 285.45, 217.84 291.77, 202.1 294.83 C186.35 297.88, 170.2 297.75, 154.03 296.44 C137.87 295.13, 120.23 292.09, 105.11 286.96 C90 281.84, 76.06 274.54, 63.33 265.69 C50.6 256.84, 37.89 245.94, 28.71 233.87 C19.54 221.79, 12.89 207.46, 8.26 193.25 C3.63 179.05, 1.19 163.14, 0.92 148.63 C0.66 134.13, 2.21 119.98, 6.67 106.23 C11.13 92.48, 18.52 78.39, 27.69 66.13 C36.87 53.87, 48.77 41.88, 61.72 32.67 C74.67 23.47, 88.97 16.24, 105.41 10.9 C121.85 5.56, 149.57 2.05, 160.34 0.63 C171.12 -0.78, 169.87 0.09, 170.06 2.4 M146.06 -0.2 C160.82 -4.12, 178.76 -0.08, 194.85 2.62 C210.94 5.33, 228.07 8.99, 242.62 16.02 C257.18 23.05, 270.93 34.39, 282.17 44.82 C293.42 55.24, 302.42 65.93, 310.07 78.59 C317.72 91.24, 324.84 106.06, 328.09 120.74 C331.33 135.42, 331.62 151.96, 329.53 166.67 C327.44 181.37, 322.1 195.8, 315.55 208.96 C309 222.12, 300.71 234.4, 290.22 245.63 C279.72 256.85, 266.52 268.51, 252.58 276.32 C238.64 284.12, 222.2 288.95, 206.59 292.47 C190.97 295.99, 174.88 297.77, 158.89 297.44 C142.9 297.11, 125.91 295.28, 110.63 290.5 C95.34 285.72, 80.14 277.52, 67.18 268.77 C54.22 260.02, 42.6 250.07, 32.88 237.99 C23.15 225.91, 14.34 210.32, 8.81 196.28 C3.27 182.23, 0.18 168.1, -0.34 153.71 C-0.86 139.32, 1.17 123.77, 5.67 109.93 C10.17 96.08, 18.07 82.77, 26.67 70.64 C35.27 58.51, 45.03 47.1, 57.27 37.15 C69.51 27.19, 85.27 16.92, 100.11 10.93 C114.95 4.94, 138.15 2.39, 146.28 1.21 C154.42 0.04, 148.63 1.32, 148.92 3.88" stroke="#2f9e44" stroke-width="2" fill="none"></path></g><g transform="translate(1518.28564453125 2212.737399046315) rotate(0 138.36593627929688 22.5)"><text x="0" y="0" font-family="Virgil, Segoe UI Emoji" font-size="36px" fill="#2f9e44" text-anchor="start" style="white-space: pre;" direction="ltr" dominant-baseline="text-before-edge">database mysql</text></g><g stroke-linecap="round" transform="translate(342.5713195800781 2169.7374600814715) rotate(0 96.28573608398438 75.71432495117188)"><path d="M32 0 C76.44 0.91, 117.9 1.58, 160.57 0 M32 0 C83.51 0.67, 135.28 1.53, 160.57 0 M160.57 0 C181.5 1.66, 192.59 10.81, 192.57 32 M160.57 0 C181.57 -0.71, 192.77 12.3, 192.57 32 M192.57 32 C193.24 63.31, 193.32 99.19, 192.57 119.43 M192.57 32 C193.26 60.68, 193.89 89.44, 192.57 119.43 M192.57 119.43 C193.75 141.85, 179.94 151.29, 160.57 151.43 M192.57 119.43 C191.88 141.15, 182.24 152.9, 160.57 151.43 M160.57 151.43 C111.13 152.55, 58.49 152.3, 32 151.43 M160.57 151.43 C114.42 151.14, 69.78 149.92, 32 151.43 M32 151.43 C11.21 153.31, 0.28 138.99, 0 119.43 M32 151.43 C9.43 152.36, -0.56 139.18, 0 119.43 M0 119.43 C-1.4 100.76, -0.41 79.72, 0 32 M0 119.43 C0.85 95.62, 1.08 70.21, 0 32 M0 32 C1.42 9.22, 11.51 -0.36, 32 0 M0 32 C-2 10.16, 9.77 -1.1, 32 0" stroke="#1971c2" stroke-width="2" fill="none"></path></g><g transform="translate(410.63307189941406 2222.9517850326433) rotate(0 28.223983764648438 22.5)"><text x="28.223983764648438" y="0" font-family="Virgil, Segoe UI Emoji" font-size="36px" fill="#1971c2" text-anchor="middle" style="white-space: pre;" direction="ltr" dominant-baseline="text-before-edge">csv</text></g><g transform="translate(926.28564453125 2485.5946072982683) rotate(0 186.10194396972656 22.5)"><text x="0" y="0" font-family="Virgil, Segoe UI Emoji" font-size="36px" fill="#1971c2" text-anchor="start" style="white-space: pre;" direction="ltr" dominant-baseline="text-before-edge">Batch Configruations</text></g><g stroke-linecap="round" transform="translate(930.5714721679688 2605.166109983815) rotate(0 220.857208251953 172.85707092285156)"><path d="M32 0 C156.26 3.59, 276.62 4.41, 409.71 0 C428.7 -2.13, 445.24 9.13, 441.71 32 C440.35 93.88, 438.48 149.86, 441.71 313.71 C441.1 332.56, 430.74 348.57, 409.71 345.71 C270.87 348.66, 132.72 347.61, 32 345.71 C12.27 343.93, -2.61 332.57, 0 313.71 C-3.71 201.54, 0.31 95.82, 0 32 C-1.56 8.29, 11.45 -1.35, 32 0" stroke="none" stroke-width="0" fill="#b2f2bb"></path><path d="M32 0 C152.42 -0.83, 274.12 -0.52, 409.71 0 M32 0 C167.7 -1.19, 302.72 -0.34, 409.71 0 M409.71 0 C430.81 -0.84, 442.74 10.59, 441.71 32 M409.71 0 C429.09 0.38, 439.73 10.71, 441.71 32 M441.71 32 C440.7 107.88, 443.47 181.02, 441.71 313.71 M441.71 32 C440.44 116.11, 441.01 201.51, 441.71 313.71 M441.71 313.71 C443.52 333.72, 431 347.26, 409.71 345.71 M441.71 313.71 C440.13 332.76, 430.71 343.7, 409.71 345.71 M409.71 345.71 C270.66 345.17, 132.29 345.37, 32 345.71 M409.71 345.71 C262.85 347.91, 114.56 347.55, 32 345.71 M32 345.71 C10.13 344.55, 0.32 336.2, 0 313.71 M32 345.71 C12.12 344.78, 1.07 335.2, 0 313.71 M0 313.71 C0.9 246.69, 0.03 182.19, 0 32 M0 313.71 C-1.18 218.1, -0.97 123.14, 0 32 M0 32 C1.45 10.98, 9.84 -1.2, 32 0 M0 32 C0.17 9.29, 12.07 -1.12, 32 0" stroke="#2f9e44" stroke-width="2" fill="none"></path></g><g transform="translate(1115.8570556640625 2775.1659879135027) rotate(0 37.56598663330078 22.5)"><text x="0" y="0" font-family="Virgil, Segoe UI Emoji" font-size="36px" fill="#1971c2" text-anchor="start" style="white-space: pre;" direction="ltr" dominant-baseline="text-before-edge">JOB</text></g><g stroke-linecap="round"><g transform="translate(595.1428833007812 2762.8802823470965) rotate(0 154.8565329072482 -0.3026439093080171)"><path d="M-0.07 -0.03 C51.58 -0.11, 258.15 -0.48, 309.78 -0.57 M0.17 -0.18 C51.81 -0.21, 258.12 -0.34, 309.7 -0.39" stroke="#2f9e44" stroke-width="2" fill="none"></path></g><g transform="translate(595.1428833007812 2762.8802823470965) rotate(0 154.8565329072482 -0.3026439093080171)"><path d="M281.52 9.89 C287.81 7.73, 294.21 5.32, 309.7 -0.39 M281.52 9.89 C289.39 6.94, 297.1 4.18, 309.7 -0.39" stroke="#2f9e44" stroke-width="2" fill="none"></path></g><g transform="translate(595.1428833007812 2762.8802823470965) rotate(0 154.8565329072482 -0.3026439093080171)"><path d="M281.5 -10.63 C287.77 -8.17, 294.18 -5.97, 309.7 -0.39 M281.5 -10.63 C289.4 -7.87, 297.11 -4.93, 309.7 -0.39" stroke="#2f9e44" stroke-width="2" fill="none"></path></g></g><mask></mask><g transform="translate(629.2855224609375 2691.451662962331) rotate(0 115.9559555053711 22.5)"><text x="0" y="0" font-family="Virgil, Segoe UI Emoji" font-size="36px" fill="#2f9e44" text-anchor="start" style="white-space: pre;" direction="ltr" dominant-baseline="text-before-edge">jobRepository</text></g><g stroke-linecap="round"><g transform="translate(576.8571166992188 2855.4518155502215) rotate(0 173.9728723298768 -0.8242093183475845)"><path d="M0.04 -0.08 C58.03 -0.37, 290.08 -1.35, 348.07 -1.63 M-0.12 0.2 C57.85 -0.14, 289.99 -1.55, 347.98 -1.85" stroke="#2f9e44" stroke-width="2" fill="none"></path></g><g transform="translate(576.8571166992188 2855.4518155502215) rotate(0 173.9728723298768 -0.8242093183475845)"><path d="M319.85 8.57 C330.02 4.86, 340.67 0.82, 347.98 -1.85 M319.85 8.57 C327.78 5.64, 335.5 2.84, 347.98 -1.85" stroke="#2f9e44" stroke-width="2" fill="none"></path></g><g transform="translate(576.8571166992188 2855.4518155502215) rotate(0 173.9728723298768 -0.8242093183475845)"><path d="M319.73 -11.95 C329.97 -8.12, 340.66 -4.62, 347.98 -1.85 M319.73 -11.95 C327.72 -9.13, 335.47 -6.18, 347.98 -1.85" stroke="#2f9e44" stroke-width="2" fill="none"></path></g></g><mask></mask><g transform="translate(673.1427612304688 2811.1659879135027) rotate(0 70.50596618652344 22.5)"><text x="0" y="0" font-family="Virgil, Segoe UI Emoji" font-size="36px" fill="#2f9e44" text-anchor="start" style="white-space: pre;" direction="ltr" dominant-baseline="text-before-edge">Listener</text></g><g stroke-linecap="round"><g transform="translate(1831.7142333984375 2756.023196165456) rotate(0 -219.5462431658625 12.286090901250418)"><path d="M-0.1 -0.04 C-73.29 4.08, -366.04 20.42, -439.26 24.55 M0.26 -0.26 C-72.93 3.91, -366.04 20.72, -439.35 24.84" stroke="#2f9e44" stroke-width="2" fill="none"></path></g><g transform="translate(1831.7142333984375 2756.023196165456) rotate(0 -219.5462431658625 12.286090901250418)"><path d="M-411.79 12.99 C-418.47 16.11, -424.99 18.58, -439.35 24.84 M-411.79 12.99 C-422.71 17.79, -433.63 22.31, -439.35 24.84" stroke="#2f9e44" stroke-width="2" fill="none"></path></g><g transform="translate(1831.7142333984375 2756.023196165456) rotate(0 -219.5462431658625 12.286090901250418)"><path d="M-410.63 33.48 C-417.54 31.71, -424.34 29.29, -439.35 24.84 M-410.63 33.48 C-422 30.22, -433.38 26.7, -439.35 24.84" stroke="#2f9e44" stroke-width="2" fill="none"></path></g></g><mask></mask><g transform="translate(1540.8570556640625 2706.1659879135027) rotate(0 48.43797302246094 22.5)"><text x="0" y="0" font-family="Virgil, Segoe UI Emoji" font-size="36px" fill="#2f9e44" text-anchor="start" style="white-space: pre;" direction="ltr" dominant-baseline="text-before-edge">steps</text></g><g stroke-linecap="round" transform="translate(1859.1428833007812 2569.7374600814715) rotate(0 293.9999694824219 191.14285278320312)"><path d="M32 0 C181.34 -1.24, 330.69 -1.96, 556 0 C579.77 1.55, 590.94 8.18, 588 32 C591.08 155.74, 590.89 277.9, 588 350.29 C590.43 368.73, 579.04 382.16, 556 382.29 C445.67 377.78, 337.28 380.05, 32 382.29 C8.54 380.89, -2.89 369.68, 0 350.29 C-0.33 260.18, -1.15 172.4, 0 32 C3.24 7.82, 9.5 2.53, 32 0" stroke="none" stroke-width="0" fill="#b2f2bb"></path><path d="M32 0 C192.98 -0.12, 353.84 -0.48, 556 0 M32 0 C168.37 -0.36, 304.81 -0.95, 556 0 M556 0 C576.79 -0.81, 586.58 9.17, 588 32 M556 0 C575.25 2.12, 589.94 12.52, 588 32 M588 32 C587.41 103.65, 585.9 175.49, 588 350.29 M588 32 C588.06 137.74, 588.42 243.98, 588 350.29 M588 350.29 C588.9 373.54, 576.72 384.04, 556 382.29 M588 350.29 C589.03 371.65, 578.3 381.53, 556 382.29 M556 382.29 C393.26 382.15, 231.55 382.29, 32 382.29 M556 382.29 C369.67 381.97, 182.65 381.58, 32 382.29 M32 382.29 C10.84 382.31, 0.23 371.78, 0 350.29 M32 382.29 C8.95 383.68, 1.08 373.37, 0 350.29 M0 350.29 C-1.74 277.89, -1.21 206.63, 0 32 M0 350.29 C-1.23 229.64, -0.98 109.63, 0 32 M0 32 C-1.1 9.54, 10.28 -1.55, 32 0 M0 32 C2.21 12.96, 11.56 1.25, 32 0" stroke="#2f9e44" stroke-width="2" fill="none"></path></g><g transform="translate(2113.308868408203 2738.3803128646746) rotate(0 39.833984375 22.5)"><text x="39.833984375" y="0" font-family="Virgil, Segoe UI Emoji" font-size="36px" fill="#2f9e44" text-anchor="middle" style="white-space: pre;" direction="ltr" dominant-baseline="text-before-edge">Step</text></g><g stroke-linecap="round"><g transform="translate(2779.142822265625 2481.166048948659) rotate(0 -156.49827359020696 52.47281317770012)"><path d="M0.6 -0.67 C-51.54 16.81, -261.26 86.74, -313.6 104.64 M-0.54 1.6 C-52.26 19.21, -259.68 88.38, -311.43 105.61" stroke="#2f9e44" stroke-width="2" fill="none"></path></g><g transform="translate(2779.142822265625 2481.166048948659) rotate(0 -156.49827359020696 52.47281317770012)"><path d="M-287.93 86.96 C-294.74 89.85, -301.07 94.6, -311.43 105.61 M-287.93 86.96 C-297.8 95, -305.84 100.36, -311.43 105.61" stroke="#2f9e44" stroke-width="2" fill="none"></path></g><g transform="translate(2779.142822265625 2481.166048948659) rotate(0 -156.49827359020696 52.47281317770012)"><path d="M-281.44 106.43 C-289.77 104.67, -297.66 104.73, -311.43 105.61 M-281.44 106.43 C-294.01 106.89, -304.56 104.7, -311.43 105.61" stroke="#2f9e44" stroke-width="2" fill="none"></path></g></g><mask></mask><g transform="translate(2532.8570556640625 2467.1659879135027) rotate(0 115.9559555053711 22.5)"><text x="0" y="0" font-family="Virgil, Segoe UI Emoji" font-size="36px" fill="#2f9e44" text-anchor="start" style="white-space: pre;" direction="ltr" dominant-baseline="text-before-edge">jobRepository</text></g><g stroke-linecap="round"><g transform="translate(2802.0001220703125 2648.023196165456) rotate(0 -169.18243315092764 47.01149060054695)"><path d="M-0.03 0.84 C-56.2 16.48, -281.17 77.31, -337.3 92.75 M-1.51 0.24 C-57.83 16.09, -282.35 78.04, -338.33 93.78" stroke="#2f9e44" stroke-width="2" fill="none"></path></g><g transform="translate(2802.0001220703125 2648.023196165456) rotate(0 -169.18243315092764 47.01149060054695)"><path d="M-313.92 76.34 C-319.46 80.92, -329.24 86.6, -338.33 93.78 M-313.92 76.34 C-321.54 81.59, -326.73 86.34, -338.33 93.78" stroke="#2f9e44" stroke-width="2" fill="none"></path></g><g transform="translate(2802.0001220703125 2648.023196165456) rotate(0 -169.18243315092764 47.01149060054695)"><path d="M-308.42 96.11 C-315.31 95.19, -326.63 95.39, -338.33 93.78 M-308.42 96.11 C-317.63 95.78, -324.37 94.95, -338.33 93.78" stroke="#2f9e44" stroke-width="2" fill="none"></path></g></g><mask></mask><g transform="translate(2520.8570556640625 2645.1659879135027) rotate(0 174.43795776367188 22.5)"><text x="0" y="0" font-family="Virgil, Segoe UI Emoji" font-size="36px" fill="#2f9e44" text-anchor="start" style="white-space: pre;" direction="ltr" dominant-baseline="text-before-edge">transactionManager</text></g><g stroke-linecap="round"><g transform="translate(2745.4287109375 2843.4518155502215) rotate(0 -143.05169418538412 9.134774215209973)"><path d="M0.18 -0.15 C-47.49 2.94, -238.45 15.37, -286.18 18.42 M0.03 0.21 C-47.64 3.25, -238.56 15.11, -286.28 18.13" stroke="#2f9e44" stroke-width="2" fill="none"></path></g><g transform="translate(2745.4287109375 2843.4518155502215) rotate(0 -143.05169418538412 9.134774215209973)"><path d="M-258.79 6.13 C-264.75 8.86, -269.88 11.26, -286.28 18.13 M-258.79 6.13 C-265.53 8.9, -272.22 11.79, -286.28 18.13" stroke="#2f9e44" stroke-width="2" fill="none"></path></g><g transform="translate(2745.4287109375 2843.4518155502215) rotate(0 -143.05169418538412 9.134774215209973)"><path d="M-257.5 26.61 C-263.71 25.12, -269.1 23.3, -286.28 18.13 M-257.5 26.61 C-264.52 24.42, -271.52 22.36, -286.28 18.13" stroke="#2f9e44" stroke-width="2" fill="none"></path></g></g><mask></mask><g transform="translate(2590.428466796875 2795.1659879135027) rotate(0 57.41997528076172 22.5)"><text x="0" y="0" font-family="Virgil, Segoe UI Emoji" font-size="36px" fill="#2f9e44" text-anchor="start" style="white-space: pre;" direction="ltr" dominant-baseline="text-before-edge">reader</text></g><g stroke-linecap="round"><g transform="translate(2728.8572998046875 2946.8802823470965) rotate(0 -138.61317876710632 -4.206157762232806)"><path d="M0.02 -0.1 C-46.16 -1.55, -231.08 -7.23, -277.24 -8.62 M-0.17 0.21 C-46.29 -1.22, -230.78 -6.95, -276.92 -8.43" stroke="#2f9e44" stroke-width="2" fill="none"></path></g><g transform="translate(2728.8572998046875 2946.8802823470965) rotate(0 -138.61317876710632 -4.206157762232806)"><path d="M-248.42 -17.8 C-254.32 -16.11, -259.91 -13.76, -276.92 -8.43 M-248.42 -17.8 C-259.35 -14.12, -270.37 -10.42, -276.92 -8.43" stroke="#2f9e44" stroke-width="2" fill="none"></path></g><g transform="translate(2728.8572998046875 2946.8802823470965) rotate(0 -138.61317876710632 -4.206157762232806)"><path d="M-249.07 2.71 C-254.85 0.29, -260.31 -1.46, -276.92 -8.43 M-249.07 2.71 C-259.76 -1.53, -270.52 -5.75, -276.92 -8.43" stroke="#2f9e44" stroke-width="2" fill="none"></path></g></g><mask></mask><g transform="translate(2549.428466796875 2897.1659879135027) rotate(0 82.72796630859375 22.5)"><text x="0" y="0" font-family="Virgil, Segoe UI Emoji" font-size="36px" fill="#2f9e44" text-anchor="start" style="white-space: pre;" direction="ltr" dominant-baseline="text-before-edge">processor</text></g><g mask="url(#mask-3g9_fOfeVxVQhJHWLJTAj)" stroke-linecap="round"><g transform="translate(2691.142822265625 3090.308871214284) rotate(0 -141.38017036616793 -57.18576844685231)"><path d="M0.06 -0.74 C-47.23 -19.94, -235.7 -96.95, -282.82 -115.86 M-1.37 1.48 C-48.38 -17.55, -234.21 -95.23, -280.69 -114.84" stroke="#2f9e44" stroke-width="2" fill="none"></path></g><g transform="translate(2691.142822265625 3090.308871214284) rotate(0 -141.38017036616793 -57.18576844685231)"><path d="M-250.72 -113.4 C-263.15 -115.76, -274.78 -115.98, -280.69 -114.84 M-250.72 -113.4 C-260.99 -113.69, -272.22 -115.26, -280.69 -114.84" stroke="#2f9e44" stroke-width="2" fill="none"></path></g><g transform="translate(2691.142822265625 3090.308871214284) rotate(0 -141.38017036616793 -57.18576844685231)"><path d="M-258.66 -94.48 C-268.02 -103.92, -276.68 -111.21, -280.69 -114.84 M-258.66 -94.48 C-266.18 -101.53, -274.58 -109.86, -280.69 -114.84" stroke="#2f9e44" stroke-width="2" fill="none"></path></g></g><mask id="mask-3g9_fOfeVxVQhJHWLJTAj"><rect x="0" y="0" fill="#fff" width="3072.85693359375" height="3305.1659268783465"></rect><rect x="2499.885787963867" y="3010.3803433822522" fill="#000" width="100.79995727539062" height="45" opacity="1"></rect></mask><g transform="translate(2499.885787963867 3010.3803433822522) rotate(0 49.87686393558988 22.742759385178942)"><text x="50.39997863769531" y="0" font-family="Virgil, Segoe UI Emoji" font-size="36px" fill="#2f9e44" text-anchor="middle" style="white-space: pre;" direction="ltr" dominant-baseline="text-before-edge">writer</text></g><g stroke-linecap="round" transform="translate(2164.28564453125 1068.5945767806902) rotate(0 189.4285888671875 88)"><path d="M32 0 C97.11 -4.26, 166.27 -3.39, 346.86 0 C368.41 2.69, 380.36 7.17, 378.86 32 C376.39 65.63, 381.45 91.5, 378.86 144 C375.34 166.02, 364.95 173.06, 346.86 176 C240.64 182.27, 134.69 177.74, 32 176 C9.48 179.25, -3.57 168.85, 0 144 C-0.86 98.08, -2.2 57.61, 0 32 C-3 7.88, 7.82 1.75, 32 0" stroke="none" stroke-width="0" fill="#b2f2bb"></path><path d="M32 0 C107.77 2.86, 183.3 0.41, 346.86 0 M32 0 C105.48 2.23, 178.31 1.55, 346.86 0 M346.86 0 C366.74 1.64, 378.93 11.43, 378.86 32 M346.86 0 C370.11 2.3, 377.75 10.88, 378.86 32 M378.86 32 C378.33 66.07, 377.92 104.04, 378.86 144 M378.86 32 C378.81 63.8, 377 97.39, 378.86 144 M378.86 144 C380.43 165.75, 366.91 177.36, 346.86 176 M378.86 144 C377.98 165.67, 366.29 174.62, 346.86 176 M346.86 176 C263.22 175.25, 180.53 175.3, 32 176 M346.86 176 C283.01 176.66, 218.4 177.92, 32 176 M32 176 C11.53 176.98, 0.76 164.68, 0 144 M32 176 C8.93 177.35, -0.81 165.64, 0 144 M0 144 C-1.93 111.32, -0.68 75.83, 0 32 M0 144 C-0.68 104.28, 0.2 65.3, 0 32 M0 32 C1.69 11.96, 10.51 0.56, 32 0 M0 32 C1.13 9.31, 9.33 -0.44, 32 0" stroke="#e03131" stroke-width="2" fill="none"></path></g><g transform="translate(2250.6102752685547 1134.0945767806902) rotate(0 103.10395812988281 22.5)"><text x="103.10395812988281" y="0" font-family="Virgil, Segoe UI Emoji" font-size="36px" fill="#e03131" text-anchor="middle" style="white-space: pre;" direction="ltr" dominant-baseline="text-before-edge">ItemReader</text></g><g transform="translate(2226.8570556640625 1275.1659879135027) rotate(0 169.19992065429688 22.5)"><text x="0" y="0" font-family="Virgil, Segoe UI Emoji" font-size="36px" fill="#e03131" text-anchor="start" style="white-space: pre;" direction="ltr" dominant-baseline="text-before-edge">FlatFileItemReader</text></g><g stroke-linecap="round"><g transform="translate(2894.5714111328125 1049.7374600814715) rotate(0 -160.5167161932493 37.07570452138316)"><path d="M-0.84 -0.28 C-54.23 12.17, -267.6 62.92, -321.24 75.62 M0.91 -1.47 C-52.51 10.55, -268.4 61.29, -321.95 73.9" stroke="#1971c2" stroke-width="2" fill="none"></path></g><g transform="translate(2894.5714111328125 1049.7374600814715) rotate(0 -160.5167161932493 37.07570452138316)"><path d="M-296.85 57.46 C-302.8 61.74, -306.67 62.97, -321.95 73.9 M-296.85 57.46 C-306.33 65.07, -316.22 71.15, -321.95 73.9" stroke="#1971c2" stroke-width="2" fill="none"></path></g><g transform="translate(2894.5714111328125 1049.7374600814715) rotate(0 -160.5167161932493 37.07570452138316)"><path d="M-292.16 77.44 C-299.31 77.22, -304.23 73.98, -321.95 73.9 M-292.16 77.44 C-303.5 77.26, -315.23 75.51, -321.95 73.9" stroke="#1971c2" stroke-width="2" fill="none"></path></g></g><mask></mask><g transform="translate(2918.8570556640625 1030.1659879135027) rotate(0 130.98594665527344 22.5)"><text x="0" y="0" font-family="Virgil, Segoe UI Emoji" font-size="36px" fill="#1971c2" text-anchor="start" style="white-space: pre;" direction="ltr" dominant-baseline="text-before-edge">setResource( )</text></g><g stroke-linecap="round"><g transform="translate(3148.8572998046875 903.4517239974871) rotate(0 1.40229929766042 56.04853696228486)"><path d="M0.02 0.01 C0.52 18.68, 2.49 93.34, 2.95 112.01 M-0.15 -0.11 C0.33 18.58, 2.41 93.56, 2.88 112.21" stroke="#1971c2" stroke-width="2" fill="none"></path></g><g transform="translate(3148.8572998046875 903.4517239974871) rotate(0 1.40229929766042 56.04853696228486)"><path d="M-8.13 84.3 C-4.79 92.88, -1.48 101, 2.88 112.21 M-8.13 84.3 C-4.33 93.53, -0.83 102.86, 2.88 112.21" stroke="#1971c2" stroke-width="2" fill="none"></path></g><g transform="translate(3148.8572998046875 903.4517239974871) rotate(0 1.40229929766042 56.04853696228486)"><path d="M12.39 83.76 C9.55 92.51, 6.69 100.78, 2.88 112.21 M12.39 83.76 C9.36 93.18, 6.05 102.69, 2.88 112.21" stroke="#1971c2" stroke-width="2" fill="none"></path></g></g><mask></mask><g transform="translate(3139.8570556640625 870.1659879135027) rotate(0 27.269973754882812 22.5)"><text x="0" y="0" font-family="Virgil, Segoe UI Emoji" font-size="36px" fill="#1971c2" text-anchor="start" style="white-space: pre;" direction="ltr" dominant-baseline="text-before-edge">file</text></g><g stroke-linecap="round"><g transform="translate(3030.5714111328125 1213.7374600814715) rotate(0 -222.91307967095963 2.886556376755834)"><path d="M0.1 0.02 C-74.2 0.97, -371.49 4.75, -445.77 5.69 M-0.05 -0.11 C-74.37 0.86, -371.65 4.9, -445.92 5.88" stroke="#1971c2" stroke-width="2" fill="none"></path></g><g transform="translate(3030.5714111328125 1213.7374600814715) rotate(0 -222.91307967095963 2.886556376755834)"><path d="M-417.87 -4.76 C-426.6 -1.52, -435.44 2.11, -445.92 5.88 M-417.87 -4.76 C-425.32 -1.95, -432.68 0.69, -445.92 5.88" stroke="#1971c2" stroke-width="2" fill="none"></path></g><g transform="translate(3030.5714111328125 1213.7374600814715) rotate(0 -222.91307967095963 2.886556376755834)"><path d="M-417.6 15.76 C-426.41 12.59, -435.34 9.81, -445.92 5.88 M-417.6 15.76 C-425.12 13.18, -432.56 10.42, -445.92 5.88" stroke="#1971c2" stroke-width="2" fill="none"></path></g></g><mask></mask><g transform="translate(1506.8570556640625 1071.1659879135027) rotate(0 116.65795135498047 22.5)"><text x="0" y="0" font-family="Virgil, Segoe UI Emoji" font-size="36px" fill="#1971c2" text-anchor="start" style="white-space: pre;" direction="ltr" dominant-baseline="text-before-edge">(ItemReader)</text></g><g stroke-linecap="round" transform="translate(2750.5711669921875 2886.308871214284) rotate(0 80.57135009765625 59.714324951171875)"><path d="M29.86 0 C59.42 0.49, 90.98 0.11, 131.29 0 C149.45 -3.37, 163.33 7.99, 161.14 29.86 C159.48 47.69, 160.42 70.99, 161.14 89.57 C162.37 108.08, 154.61 117.62, 131.29 119.43 C92.34 122.2, 60.02 120.23, 29.86 119.43 C12.51 118.53, -1.85 107.05, 0 89.57 C-0.58 74.74, -1.88 58.4, 0 29.86 C0.05 7.15, 8.33 -3.54, 29.86 0" stroke="none" stroke-width="0" fill="#b2f2bb"></path><path d="M29.86 0 C63.59 -2.44, 100.76 -2.51, 131.29 0 M29.86 0 C57.01 1.07, 85.29 0.34, 131.29 0 M131.29 0 C150.41 -1.44, 161.39 7.98, 161.14 29.86 M131.29 0 C149.7 0.63, 161.85 10.43, 161.14 29.86 M161.14 29.86 C161.2 47.02, 162.86 64.84, 161.14 89.57 M161.14 29.86 C160.66 52.77, 162.33 77.73, 161.14 89.57 M161.14 89.57 C161.51 110.35, 150.45 119.85, 131.29 119.43 M161.14 89.57 C162.51 111.59, 150.54 121.68, 131.29 119.43 M131.29 119.43 C104.81 120.5, 77.12 119.3, 29.86 119.43 M131.29 119.43 C108.04 119.51, 83.17 119.82, 29.86 119.43 M29.86 119.43 C11.59 121.08, 0.57 109.71, 0 89.57 M29.86 119.43 C9.08 119.08, -0.39 111.63, 0 89.57 M0 89.57 C-1.45 69.08, -2.22 49.63, 0 29.86 M0 89.57 C0.6 67.19, 1.07 42.42, 0 29.86 M0 29.86 C-0.16 9.39, 11.32 -0.58, 29.86 0 M0 29.86 C-1.26 8.75, 10.75 -0.71, 29.86 0" stroke="#2f9e44" stroke-width="2" fill="none"></path></g><g stroke-linecap="round" transform="translate(2779.142822265625 2761.7375211166277) rotate(0 65.1429443359375 40)"><path d="M20 0 C53.93 0.35, 93.49 -0.44, 110.29 0 C123.72 -2.62, 130.67 7.89, 130.29 20 C127.3 30.96, 128.31 36.05, 130.29 60 C132.76 74.23, 126.57 83.38, 110.29 80 C92.76 79.57, 70.34 82.19, 20 80 C9.39 83.38, 1 76.18, 0 60 C-0.5 48.9, 2.2 35.86, 0 20 C0.55 3.07, 9.97 1.44, 20 0" stroke="none" stroke-width="0" fill="#a5d8ff"></path><path d="M20 0 C48.44 1.22, 78.22 -1, 110.29 0 M20 0 C47.25 0.57, 74.8 -0.32, 110.29 0 M110.29 0 C123.17 -0.92, 129.04 5.68, 130.29 20 M110.29 0 C123.35 1.72, 130.05 4.49, 130.29 20 M130.29 20 C129.14 34.13, 128.11 45.09, 130.29 60 M130.29 20 C130.4 30.93, 129.51 41.57, 130.29 60 M130.29 60 C131.73 74.72, 123.83 78.93, 110.29 80 M130.29 60 C131.71 71.6, 123.37 79.86, 110.29 80 M110.29 80 C90.34 80.33, 66.76 77.67, 20 80 M110.29 80 C86.61 79.99, 60.39 79.4, 20 80 M20 80 C6.48 79.51, -0.36 73.47, 0 60 M20 80 C7.69 80.36, -0.81 75.17, 0 60 M0 60 C1.4 44.36, -0.24 28.03, 0 20 M0 60 C-0.76 43.82, 0.47 28.6, 0 20 M0 20 C-1.27 6.05, 6.69 1.91, 20 0 M0 20 C0.06 6.8, 8.47 -1.4, 20 0" stroke="#1971c2" stroke-width="2" fill="none"></path></g><g stroke-linecap="round" transform="translate(2732.2855224609375 3053.166109983815) rotate(0 65.1429443359375 40)"><path d="M20 0 C42.24 -4.62, 65.43 -2.78, 110.29 0 C124.57 -1.74, 133.72 3.07, 130.29 20 C128.96 34.29, 130.37 44.37, 130.29 60 C129.87 75.94, 126.12 80.37, 110.29 80 C87.65 78.55, 63.29 75.35, 20 80 C4.07 81.57, 1.78 69.93, 0 60 C-0.42 54.31, 0.75 39.46, 0 20 C-1.6 6.34, 5.79 -0.64, 20 0" stroke="none" stroke-width="0" fill="#a5d8ff"></path><path d="M20 0 C50.11 -0.96, 81.24 0.57, 110.29 0 M20 0 C44.79 0.16, 68.98 -0.48, 110.29 0 M110.29 0 C125.13 -0.97, 131.32 5.83, 130.29 20 M110.29 0 C124.57 -1.11, 128.13 8.06, 130.29 20 M130.29 20 C130.5 29.1, 129.03 39.45, 130.29 60 M130.29 20 C131.37 31.91, 130.99 44.03, 130.29 60 M130.29 60 C129.56 71.8, 125.52 80.62, 110.29 80 M130.29 60 C131.22 74.97, 123.04 78.82, 110.29 80 M110.29 80 C88.7 80.94, 69 80.22, 20 80 M110.29 80 C79.9 78.31, 50.45 78.46, 20 80 M20 80 C4.78 79.81, 1.49 72.3, 0 60 M20 80 C8.11 78.7, 0.72 72.91, 0 60 M0 60 C0.21 46.15, 0.15 35.72, 0 20 M0 60 C0.56 50.99, 0.11 44.29, 0 20 M0 20 C0 5.61, 7.81 -1.51, 20 0 M0 20 C-0.75 6.15, 5.61 -1.43, 20 0" stroke="#1971c2" stroke-width="2" fill="none"></path></g></svg>